<svg width="420" height="124" viewBox="0 0 420 124" fill="none" xmlns="http://www.w3.org/2000/svg">
  <rect x="2" y="2" width="416" height="120" rx="18" fill="#0D1117" stroke="#2F353D" stroke-width="4"/>
  <rect x="28" y="26" width="88" height="72" rx="14" fill="#0D3B24"/>
  <circle cx="72" cy="62" r="24" fill="#E8F7ED"/>
  <path d="M72 44C62.059 44 54 52.059 54 62C54 69.952 59.162 76.697 66.315 79.076C67.215 79.244 67.545 78.691 67.545 78.217C67.545 77.789 67.53 76.348 67.522 74.813C62.515 75.902 61.459 72.401 61.459 72.401C60.64 70.32 59.457 69.766 59.457 69.766C57.82 68.648 59.581 68.671 59.581 68.671C61.393 68.797 62.346 70.53 62.346 70.53C63.954 73.286 66.565 72.489 67.594 72.027C67.756 70.862 68.223 70.067 68.739 69.616C64.741 69.161 60.54 67.617 60.54 60.714C60.54 58.747 61.243 57.139 62.397 55.88C62.21 55.424 61.592 53.584 62.574 51.097C62.574 51.097 64.092 50.611 67.545 52.946C68.989 52.544 70.538 52.343 72.087 52.335C73.636 52.343 75.185 52.544 76.629 52.946C80.082 50.611 81.6 51.097 81.6 51.097C82.582 53.584 81.964 55.424 81.777 55.88C82.932 57.139 83.634 58.747 83.634 60.714C83.634 67.633 79.425 69.153 75.419 69.6C76.063 70.159 76.649 71.254 76.649 72.932C76.649 75.332 76.629 77.612 76.629 78.217C76.629 78.695 76.955 79.252 77.869 79.074C85.018 76.693 90.177 69.95 90.177 62C90.177 52.059 82.118 44 72.177 44H72Z" fill="#0D1117"/>
  <text x="136" y="47" fill="#F3F5F7" font-family="Arial, Helvetica, sans-serif" font-size="24" font-weight="700" letter-spacing="1.8">GET IT ON</text>
  <text x="136" y="86" fill="#FFFFFF" font-family="Arial, Helvetica, sans-serif" font-size="42" font-weight="700">GitHub</text>
</svg>
